# xmcd
#
# Track frame offsets:
#	225
#	11753
#	23272
#	35096
#	46920
#	58369
#	69821
#	82140
#	94453
#	106174
#	117889
#	129381
#	140871
#	152434
#	163986
#	175858
#	187707
#	199256
#	210787
#	222349
#	233907
#	238694
#	243472
#	248248
#	253039
#	257827
#	262613
#	267401
#	272193
#	276972
#	281767
#	284302
#	286850
#	289367
#	291919
#	294459
#	296973
#	299531
#	302043
#	304578
#	307124
#	308532
#	309939
#	311325
#	312714
#	314116
#	315530
#	316933
#	318394
#	319798
#
# Disc length: 4279 seconds
#
# Revision: 1
# Processed by: cddbd v1.5.2PL0 Copyright (c) Steve Scherf et al.
# Submitted via: audiograbber 1.83.01
#
DISCID=0a10b432
DTITLE=Westar Music - WSR137
DYEAR=2002
DGENRE=Country
TTITLE0=Bustin Out
TTITLE1=Bustin Out
TTITLE2=Freight Train Rider
TTITLE3=Freight Train Rider
TTITLE4=Ten Miles of Dirt Road
TTITLE5=Ten Miles of Dirt Road
TTITLE6=Dogs Run
TTITLE7=Dogs Run
TTITLE8=Two Steps Forward
TTITLE9=Two Steps Forward
TTITLE10=My Rhinestone Jacket
TTITLE11=My Rhinestone Jacket
TTITLE12=State of Mind
TTITLE13=State of Mind
TTITLE14=Pine Knot
TTITLE15=Pine Knot
TTITLE16=Dont Be Late
TTITLE17=Dont Be Late
TTITLE18=The Johnson Sawmill
TTITLE19=The Johnson Sawmill
TTITLE20=Bustin Out
TTITLE21=Freight Train Rider
TTITLE22=Ten Miles of Dirt Road
TTITLE23=Dogs Run
TTITLE24=Two Steps Forward
TTITLE25=My Rhinestone Jacket
TTITLE26=State of Mind
TTITLE27=Pine Knot
TTITLE28=Dont Be Late
TTITLE29=The Johnson Sawmill
TTITLE30=Bustin Out
TTITLE31=Freight Train Rider
TTITLE32=Ten Miles of Dirt Road
TTITLE33=Dogs Run
TTITLE34=Two Steps Forward
TTITLE35=My Rhinestone Jacket
TTITLE36=State of Mind
TTITLE37=Pine Knot
TTITLE38=Dont Be Late
TTITLE39=The Johnson Sawmill
TTITLE40=Bustin Out
TTITLE41=Freight Train Rider
TTITLE42=Ten Miles of Dirt Road
TTITLE43=Dogs Run
TTITLE44=Two Steps Forward
TTITLE45=My Rhinestone Jacket
TTITLE46=State of Mind
TTITLE47=Pine Knot
TTITLE48=Dont Be Late
TTITLE49=The Johnson Sawmill
EXTD=Upbeat and Rousing Modern Country Tunes with a Splash of Dance and Swing\n
EXTD=All Music Composed by Kelly Richmond (SOCAN]\nAll Music Published by Westa
EXTD=r Music Publishing (SOCAN)
EXTT0=Active, Quick, Playful
EXTT1=Active, Quick, Playful
EXTT2=Energetic, Rousing, Robust
EXTT3=Energetic, Rousing, Robust
EXTT4=Bouncy, Infectious, Toe Tapping
EXTT5=Bouncy, Infectious, Toe Tapping
EXTT6=Restless, Dynamic, Freewheeling
EXTT7=Restless, Dynamic, Freewheeling
EXTT8=Agile, Pulsating, Rhythmic
EXTT9=Agile, Pulsating, Rhythmic
EXTT10=Swinging, Lilting, Flirtatious
EXTT11=Swinging, Lilting, Flirtatious
EXTT12=Confident, Easygoing, Gliding
EXTT13=Confident, Easygoing, Gliding
EXTT14=Bold, Determined, Driving
EXTT15=Bold, Determined, Driving
EXTT16=Rolling, Carefree, Inviting
EXTT17=Rolling, Carefree, Inviting
EXTT18=Nimble, Spirited, Positive
EXTT19=Nimble, Spirited, Positive
EXTT20=Active, Quick, Playful
EXTT21=Energetic, Rousing, Robust
EXTT22=Bouncy, Infectious, Toe Tapping
EXTT23=Restless, Dynamic, Freewheeling
EXTT24=Agile, Pulsating, Rhythmic
EXTT25=Swinging, Lilting, Flirtatious
EXTT26=Confident, Easygoing, Gliding
EXTT27=Bold, Determined, Driving
EXTT28=Rolling, Carefree, Inviting
EXTT29=Nimble, Spirited, Positive
EXTT30=Active, Quick, Playful
EXTT31=Energetic, Rousing, Robust
EXTT32=Bouncy, Infectious, Toe Tapping
EXTT33=Restless, Dynamic, Freewheeling
EXTT34=Agile, Pulsating, Rhythmic
EXTT35=Swinging, Lilting, Flirtatious
EXTT36=Confident, Easygoing, Gliding
EXTT37=Bold, Determined, Driving
EXTT38=Rolling, Carefree, Inviting
EXTT39=Nimble, Spirited, Positive
EXTT40=Active, Quick, Playful
EXTT41=Energetic, Rousing, Robust
EXTT42=Bouncy, Infectious, Toe Tapping
EXTT43=Restless, Dynamic, Freewheeling
EXTT44=Agile, Pulsating, Rhythmic
EXTT45=Swinging, Lilting, Flirtatious
EXTT46=Confident, Easygoing, Gliding
EXTT47=Bold, Determined, Driving
EXTT48=Rolling, Carefree, Inviting
EXTT49=Nimble, Spirited, Positive
PLAYORDER=
